<svg width="230" height="146" viewBox="0 0 230 146" fill="none" xmlns="http://www.w3.org/2000/svg" aria-hidden="true" className="fill-current text-red-500">
	<path fill="current" d="M12 12h2v2h-2zM36 12h2v2h-2zM60 12h2v2h-2zM84 12h2v2h-2zM108 12h2v2h-2zM132 12h2v2h-2zM156 12h2v2h-2zM180 12h2v2h-2zM204 12h2v2h-2zM228 12h2v2h-2z" />
	<path fill="current" d="M12 36h2v2h-2zM36 36h2v2h-2zM60 36h2v2h-2zM84 36h2v2h-2zM108 36h2v2h-2zM132 36h2v2h-2zM156 36h2v2h-2zM180 36h2v2h-2zM204 36h2v2h-2zM228 36h2v2h-2z" />
	<path fill="current" d="M12 60h2v2h-2zM36 60h2v2h-2zM60 60h2v2h-2zM84 60h2v2h-2zM108 60h2v2h-2zM132 60h2v2h-2zM156 60h2v2h-2zM180 60h2v2h-2zM204 60h2v2h-2zM228 60h2v2h-2z" />
	<path fill="current" d="M12 84h2v2h-2zM36 84h2v2h-2zM60 84h2v2h-2zM84 84h2v2h-2zM108 84h2v2h-2zM132 84h2v2h-2zM156 84h2v2h-2zM180 84h2v2h-2zM204 84h2v2h-2zM228 84h2v2h-2z" />
	<path fill="current" d="M12 108h2v2h-2zM36 108h2v2h-2zM60 108h2v2h-2zM84 108h2v2h-2zM108 108h2v2h-2zM132 108h2v2h-2zM156 108h2v2h-2zM180 108h2v2h-2zM204 108h2v2h-2zM228 108h2v2h-2z" />
	<path fill="current" d="M12 132h2v2h-2zM36 132h2v2h-2zM60 132h2v2h-2zM84 132h2v2h-2zM108 132h2v2h-2zM132 132h2v2h-2zM156 132h2v2h-2zM180 132h2v2h-2zM204 132h2v2h-2zM228 132h2v2h-2z" />
</svg>
